PathFileType	4	(X/Y/Z)	1H_nor_med_right.trc
DataRate	CameraRate	NumFrames	NumMarkers	Units	OrigDataRate	OrigDataStartFrame	OrigNumFrames
250.00	250.00	12	18	mm	250.00	1	11009
Frame#	Time	c7	r_should	l_should	clavicle	r_upa	r_elb_l	r_elb_m	r_low	r_wri_l	r_wri_m	r_met	l_upa	l_elb_l	l_elb_m	l_low	l_wri_l	l_wri_m	l_met
	X1	Y1	Z1	X2	Y2	Z2	X3	Y3	Z3	X4	Y4	Z4	X5	Y5	Z5	X6	Y6	Z6	X7	Y7	Z7	X8	Y8	Z8	X9	Y9	Z9	X10	Y10	Z10	X11	Y11	Z11	X12	Y12	Z12	X13	Y13	Z13	X14	Y14	Z14	X15	Y15	Z15	X16	Y16	Z16	X17	Y17	Z17	X18	Y18	Z18
1	0.00000	1234.61316	1422.20874	156.50998	1302.68701	1355.60718	313.87674	1253.87793	1363.85022	-20.37582	1353.87488	1289.83374	136.86758	1315.47070	1148.36450	378.49292	1313.72754	1061.83264	404.08755	1229.32471	1034.37012	368.38785	1332.45032	927.97510	402.48914	1351.24353	807.02655	396.26898	1274.76245	801.37958	408.80023	1348.83667	735.61627	434.59030	1244.92310	1154.20959	-85.38329	1248.47205	1047.62891	-107.51175	1197.22485	1034.21753	-19.05525	1256.96570	926.44568	-104.46271	1280.61597	809.41467	-80.52617	1203.26135	800.62140	-75.96612	1266.70288	726.34521	-113.18701
2	0.00400	1234.53491	1422.24683	156.28529	1302.59924	1355.59753	313.68149	1253.72168	1363.84717	-20.59009	1353.77319	1289.85339	136.66106	1315.38611	1148.38672	378.41119	1313.75671	1061.81433	403.92804	1229.35181	1034.32263	368.20621	1332.51318	927.96765	402.31897	1351.33105	807.01221	395.98978	1274.86499	801.34540	408.63644	1349.00964	735.63116	434.34399	1244.63489	1154.20374	-85.63993	1248.26929	1047.57410	-107.69103	1197.00647	1034.22021	-19.23879	1256.78406	926.42926	-104.57696	1280.43604	809.38416	-80.53904	1203.07739	800.58136	-76.04320	1266.56592	726.35620	-113.28118
3	0.00800	1234.46484	1422.27600	156.06691	1302.50854	1355.58142	313.48483	1253.55908	1363.83472	-20.80466	1353.66907	1289.86731	136.45003	1315.29553	1148.40771	378.33160	1313.78748	1061.79883	403.78976	1229.38818	1034.26721	368.03317	1332.57007	927.95605	402.15033	1351.42273	806.99396	395.72208	1274.96887	801.30847	408.48544	1349.18457	735.62872	434.10086	1244.34070	1154.20459	-85.89890	1248.05750	1047.53162	-107.87486	1196.79114	1034.21716	-19.43490	1256.60254	926.39917	-104.67728	1280.25989	809.35529	-80.55762	1202.88879	800.54901	-76.13374	1266.43433	726.36737	-113.37244
4	0.01200	1234.39905	1422.30029	155.85408	1302.42444	1355.55396	313.29428	1253.39868	1363.81787	-21.02097	1353.56641	1289.86853	136.24301	1315.20312	1148.41504	378.25723	1313.81970	1061.76746	403.65097	1229.42664	1034.20374	367.86716	1332.63562	927.93109	401.98627	1351.51294	806.96716	395.47595	1275.08301	801.26050	408.36230	1349.36841	735.61798	433.85626	1244.03625	1154.21033	-86.15828	1247.84924	1047.48779	-108.05746	1196.59204	1034.20239	-19.63198	1256.71191	925.97388	-104.18364	1280.09033	809.32703	-80.58980	1202.69568	800.52985	-76.22572	1266.29443	726.38214	-113.46837
5	0.01600	1234.33459	1422.31995	155.63513	1302.34045	1355.52185	313.10233	1253.24878	1363.79712	-21.23713	1353.46069	1289.85620	136.02986	1315.11902	1148.41870	378.17743	1313.85693	1061.72754	403.51126	1229.46240	1034.13586	367.70834	1332.70044	927.89099	401.81033	1351.60498	806.93732	395.23941	1275.20728	801.21161	408.23929	1349.55591	735.59631	433.60623	1243.72424	1154.20837	-86.41607	1247.64563	1047.44128	-108.24257	1196.39990	1034.17505	-19.83422	1257.19519	925.05048	-102.93571	1279.92395	809.30627	-80.62914	1202.51208	800.50189	-76.32653	1266.15198	726.39404	-113.56355
6	0.02000	1234.27161	1422.33740	155.42877	1302.25574	1355.48157	312.91116	1253.11035	1363.76721	-21.44441	1353.35156	1289.83350	135.81656	1315.03918	1148.41382	378.07678	1313.90442	1061.68884	403.35840	1229.50378	1034.06836	367.56549	1332.76892	927.84760	401.62964	1351.70117	806.90863	394.99854	1275.33362	801.16461	408.11646	1349.74658	735.56921	433.35956	1243.40051	1154.20874	-86.67914	1247.44788	1047.39600	-108.41328	1196.21252	1034.15344	-20.01731	1257.18469	924.79919	-102.69965	1279.76306	809.28333	-80.67054	1202.33533	800.47229	-76.42711	1266.01245	726.40082	-113.66127
7	0.02400	1234.21045	1422.35034	155.22357	1302.17065	1355.44421	312.71774	1252.97107	1363.73804	-21.65352	1353.24329	1289.80664	135.60658	1314.97449	1148.40723	377.96777	1313.96667	1061.64575	403.19424	1229.55139	1033.99915	367.42859	1332.85022	927.79803	401.44537	1351.80847	806.87653	394.75043	1275.46838	801.11194	408.00497	1349.93738	735.54138	433.11829	1243.07202	1154.21106	-86.94004	1247.24951	1047.35132	-108.58199	1196.02295	1034.14673	-20.18506	1257.05603	924.70673	-102.71547	1279.60913	809.25903	-80.71435	1202.17175	800.42377	-76.52171	1265.87195	726.40253	-113.76199
8	0.02800	1234.15417	1422.36865	155.00873	1302.08459	1355.41211	312.52170	1252.84070	1363.71167	-21.86691	1353.13062	1289.78271	135.39244	1314.92651	1148.39441	377.84668	1314.04382	1061.60156	403.01306	1229.60571	1033.92896	367.29843	1332.94824	927.74548	401.25629	1351.92224	806.85199	394.49323	1275.61707	801.05530	407.88068	1350.13220	735.51300	432.88037	1242.75195	1154.20862	-87.18993	1247.05029	1047.31396	-108.75114	1195.84277	1034.14600	-20.33968	1256.89990	924.64478	-102.79571	1279.45081	809.23151	-80.78049	1202.01758	800.37634	-76.60531	1265.73926	726.38800	-113.85294
9	0.03200	1234.09949	1422.38501	154.79510	1301.99902	1355.37573	312.32764	1252.72156	1363.68347	-22.07917	1353.01807	1289.74951	135.17978	1314.88892	1148.37012	377.70920	1314.12708	1061.55896	402.81583	1229.66992	1033.85229	367.17474	1333.04529	927.69653	401.05838	1352.03857	806.82495	394.24451	1275.77637	800.99738	407.75513	1350.34338	735.48376	432.63879	1242.44800	1154.20569	-87.43530	1246.85327	1047.28357	-108.91573	1195.67004	1034.14490	-20.49010	1256.44543	924.99823	-103.50466	1279.29602	809.19122	-80.85978	1201.86511	800.33350	-76.69664	1265.61194	726.36536	-113.95025
10	0.03600	1234.04236	1422.39771	154.59018	1301.91150	1355.33972	312.13303	1252.61133	1363.65210	-22.28624	1352.90564	1289.71167	134.97249	1314.86475	1148.34473	377.55142	1314.21936	1061.51819	402.62000	1229.74146	1033.77722	367.05368	1333.14099	927.64697	400.84488	1352.16333	806.79297	393.99286	1275.93127	800.94623	407.63687	1350.56189	735.44751	432.39499	1242.16797	1154.19861	-87.66388	1246.66455	1047.24841	-109.08347	1195.52625	1034.12390	-20.64534	1255.91528	925.45148	-104.36961	1279.14417	809.15942	-80.95261	1201.71289	800.29608	-76.78741	1265.48645	726.33954	-114.05168
11	0.04000	1233.97876	1422.40503	154.37804	1301.83191	1355.30310	311.94156	1252.50952	1363.61829	-22.49282	1352.79114	1289.67053	134.76990	1314.85022	1148.31543	377.37042	1314.31836	1061.48120	402.41891	1229.81213	1033.70520	366.93698	1333.24524	927.60040	400.64221	1352.29822	806.76294	393.74185	1276.09802	800.90259	407.53281	1350.78479	735.40320	432.15268	1241.90698	1154.18982	-87.87765	1246.48730	1047.21472	-109.24841	1195.40479	1034.09839	-20.80515	1255.94263	925.13849	-104.08498	1278.99475	809.13074	-81.04807	1201.56287	800.26526	-76.88548	1265.36621	726.31311	-114.15619
12	0.04400	1233.90967	1422.40881	154.16774	1301.75488	1355.26562	311.75552	1252.40942	1363.59021	-22.70639	1352.67590	1289.62769	134.56798	1314.84705	1148.27686	377.17325	1314.41919	1061.44934	402.21335	1229.89124	1033.63745	366.82047	1333.35718	927.55762	400.44995	1352.43884	806.73505	393.50732	1276.26904	800.85956	407.43216	1351.01477	735.35181	431.91632	1241.67065	1154.17456	-88.08144	1246.31665	1047.18604	-109.41608	1195.29199	1034.08435	-20.95668	1255.54175	925.44116	-104.71119	1278.84924	809.08704	-81.14775	1201.41699	800.24780	-76.98194	1265.24683	726.28210	-114.25892
